<?xml version="1.0" encoding="UTF-8" standalone="no"?>
<!-- Created with Inkscape (http://www.inkscape.org/) -->

<svg
   xmlns:dc="http://purl.org/dc/elements/1.1/"
   xmlns:cc="http://creativecommons.org/ns#"
   xmlns:rdf="http://www.w3.org/1999/02/22-rdf-syntax-ns#"
   xmlns:svg="http://www.w3.org/2000/svg"
   xmlns="http://www.w3.org/2000/svg"
   xmlns:sodipodi="http://sodipodi.sourceforge.net/DTD/sodipodi-0.dtd"
   xmlns:inkscape="http://www.inkscape.org/namespaces/inkscape"
   version="1.1"
   width="200"
   height="200"
   id="svg3813"
   inkscape:version="0.48.1 "
   sodipodi:docname="Simple_Prohibited.svg">
  <sodipodi:namedview
     pagecolor="#ffffff"
     bordercolor="#666666"
     borderopacity="1"
     objecttolerance="10"
     gridtolerance="10"
     guidetolerance="10"
     inkscape:pageopacity="0"
     inkscape:pageshadow="2"
     inkscape:window-width="1024"
     inkscape:window-height="715"
     id="namedview7"
     showgrid="false"
     inkscape:zoom="0.31819805"
     inkscape:cx="353.86789"
     inkscape:cy="209.19274"
     inkscape:window-x="-8"
     inkscape:window-y="-8"
     inkscape:window-maximized="1"
     inkscape:current-layer="svg3813"
     fit-margin-top="0"
     fit-margin-left="0"
     fit-margin-right="0"
     fit-margin-bottom="0" />
  <defs
     id="defs3815" />
  <metadata
     id="metadata3818">
    <rdf:RDF>
      <cc:Work
         rdf:about="">
        <dc:format>image/svg+xml</dc:format>
        <dc:type
           rdf:resource="http://purl.org/dc/dcmitype/StillImage" />
        <dc:title />
      </cc:Work>
    </rdf:RDF>
  </metadata>
  <path
     inkscape:connector-curvature="0"
     style="fill:#e0d500;fill-opacity:1"
     id="circle3823"
     d="m 100,0 c 55.22848,0 100,44.77152 100,100 0,55.22847 -44.77152,100 -100,100 C 44.771523,200 0,155.22847 0,100 0,44.77152 44.771523,0 100,0 z m 0,25 C 84.716793,25 70.500917,29.57714 58.645833,37.42708 L 162.57292,141.35416 C 170.42286,129.49908 175,115.2832 175,100 175,58.57864 141.42136,25 100,25 z M 37.427083,58.63541 C 29.574213,70.49194 25,84.71369 25,100 c 0,41.42135 33.578643,74.99999 75,74.99999 15.28631,0 29.50805,-4.57421 41.36458,-12.42708 L 37.427083,58.63541 z" />
</svg>
